<?xml version="1.0" encoding="iso-8859-1"?>
<!-- Uploaded to: SVG Repo, www.svgrepo.com, Generator: SVG Repo Mixer Tools -->
<svg height="800px" width="800px" version="1.1" id="Layer_1" xmlns="http://www.w3.org/2000/svg" xmlns:xlink="http://www.w3.org/1999/xlink" 
	 viewBox="0 0 512 512" xml:space="preserve">
<path style="fill:#DFDFE1;" d="M460.8,512H51.2C23.04,512,0,488.96,0,460.8V51.2C0,23.04,23.04,0,51.2,0h409.6
	C488.96,0,512,23.04,512,51.2v409.6C512,488.96,488.96,512,460.8,512z"/>
<path style="fill:#CFCDD2;" d="M460.8,0H256v512h204.8c28.16,0,51.2-23.04,51.2-51.2V51.2C512,23.04,488.96,0,460.8,0z"/>
<path style="fill:#88888F;" d="M0,204.8v256C0,488.96,23.04,512,51.2,512h409.6c28.16,0,51.2-23.04,51.2-51.2v-256H0z"/>
<path style="fill:#56545A;" d="M256,204.8V512h204.8c28.16,0,51.2-23.04,51.2-51.2v-256H256z"/>
<circle style="fill:#B4D8F1;" cx="256" cy="256" r="119.467"/>
<path style="fill:#FF4F19;" d="M409.6,136.533c-18.821,0-34.133-15.312-34.133-34.133s15.312-34.133,34.133-34.133
	c18.821,0,34.133,15.312,34.133,34.133S428.421,136.533,409.6,136.533z"/>
<path style="fill:#98C8ED;" d="M340.475,171.525L171.523,340.477c46.655,46.655,122.296,46.655,168.951,0
	S387.13,218.179,340.475,171.525z"/>
</svg>